<svg width="16" height="16" viewBox="0 0 16 16" fill="none" xmlns="http://www.w3.org/2000/svg">
<path d="M15.9924 12.6237C16.0263 12.8835 15.9471 13.1093 15.7552 13.3013L13.5025 15.537C13.4008 15.6499 13.2682 15.746 13.1044 15.825C12.9407 15.904 12.7798 15.9548 12.6218 15.9774C12.6105 15.9774 12.5765 15.9803 12.5201 15.986C12.4637 15.9916 12.3903 15.9944 12.2999 15.9944C12.0853 15.9944 11.7381 15.9577 11.2582 15.8843C10.7783 15.8109 10.1911 15.6302 9.49669 15.3423C8.80212 15.0544 8.01453 14.6224 7.13378 14.0465C6.25303 13.4707 5.31576 12.6802 4.32206 11.6752C3.53162 10.8961 2.87668 10.1508 2.35724 9.43942C1.83781 8.72799 1.42 8.07023 1.10383 7.4661C0.78762 6.86198 0.550487 6.31431 0.392399 5.82311C0.23431 5.33191 0.127036 4.90845 0.0705753 4.55275C0.0141151 4.19705 -0.00846903 3.91758 0.00282301 3.71432C0.0141151 3.51106 0.0197611 3.39814 0.0197611 3.37556C0.0423452 3.21747 0.0931594 3.05656 0.172204 2.89282C0.251248 2.72909 0.34723 2.59641 0.460151 2.49478L2.71291 0.242016C2.871 0.0839271 3.05168 0.00488281 3.25493 0.00488281C3.40173 0.00488281 3.53159 0.047228 3.64451 0.131918C3.75743 0.216609 3.85341 0.32106 3.93246 0.445273L5.74483 3.8837C5.84646 4.06437 5.87469 4.26198 5.82952 4.47653C5.78435 4.69108 5.68837 4.87175 5.54157 5.01855L4.71161 5.84852C4.68902 5.8711 4.66926 5.9078 4.65232 5.95861C4.63539 6.00943 4.62692 6.05177 4.62692 6.08565C4.67208 6.32278 4.77371 6.59379 4.9318 6.89868C5.06731 7.16969 5.27621 7.49998 5.55851 7.88955C5.84081 8.27913 6.24168 8.72796 6.76111 9.2361C7.26925 9.75559 7.72094 10.1592 8.11616 10.4472C8.5113 10.7351 8.8417 10.9469 9.10706 11.0824C9.37243 11.2179 9.57568 11.2998 9.71681 11.3279L9.92848 11.3703C9.95106 11.3703 9.98784 11.3618 10.0386 11.3449C10.0894 11.3279 10.1261 11.3082 10.1487 11.2856L11.1142 10.3031C11.3175 10.1225 11.5546 10.0322 11.8256 10.0322C12.0176 10.0322 12.17 10.066 12.2829 10.1338H12.2998L15.5688 12.0647C15.806 12.2116 15.9472 12.3979 15.9924 12.6237Z" fill="white"/>
</svg>
