<svg width="12" height="16" viewBox="0 0 12 16" fill="none" xmlns="http://www.w3.org/2000/svg">
<path d="M6.16711 0.0205078C3.20971 0.0205078 0.803711 2.4899 0.803711 5.52519C0.803711 9.29207 5.60342 14.8221 5.80778 15.0556C5.99972 15.2751 6.33484 15.2747 6.52644 15.0556C6.73079 14.8221 11.5305 9.29207 11.5305 5.52519C11.5304 2.4899 9.12447 0.0205078 6.16711 0.0205078ZM6.16711 8.29475C4.67917 8.29475 3.46868 7.05233 3.46868 5.52519C3.46868 3.99805 4.6792 2.75566 6.16711 2.75566C7.65502 2.75566 8.86551 3.99808 8.86551 5.52522C8.86551 7.05236 7.65502 8.29475 6.16711 8.29475Z" fill="#111111"/>
</svg>
