<svg width="14" height="14" viewBox="0 0 14 14" fill="none" xmlns="http://www.w3.org/2000/svg">
<path d="M1.23694 11.3429C0.779093 11.8009 0.779093 12.5425 1.23694 13.0004C1.46586 13.2294 1.76587 13.3435 2.06591 13.3435C2.36595 13.3435 2.66596 13.2294 2.89488 13.0004L6.74282 9.15088L5.08488 7.49414L1.23694 11.3429Z" fill="#010002"/>
<path d="M10.8539 4.20959L12.5298 3.3429L13.4072 1.64632L12.5892 0.828125L10.8938 1.7065L10.0257 3.38121L7.9873 5.42241L8.81394 6.25079L10.8539 4.20959Z" fill="#010002"/>
<path d="M11.2213 8.65857L11.0634 8.64294C10.7775 8.64294 10.5064 8.70155 10.2532 8.79533L5.4427 3.98297C5.53646 3.72978 5.59506 3.4586 5.59506 3.17258L5.57943 3.01471C5.49662 1.79481 4.49185 0.828125 3.25114 0.828125C2.89017 0.828125 2.55186 0.916429 2.24637 1.06257L3.80352 2.62006C3.88556 2.70212 3.94182 2.79901 3.97931 2.9014C4.08166 3.17803 4.02619 3.50158 3.80352 3.72508C3.65116 3.87747 3.45115 3.95405 3.25114 3.95405C3.15895 3.95405 3.06753 3.93374 2.98002 3.90091C2.87768 3.86184 2.78078 3.80713 2.69874 3.72431L1.14162 2.16759C0.995511 2.47314 0.907227 2.81153 0.907227 3.17258C0.907227 4.41356 1.8737 5.41855 3.09334 5.50138L3.25117 5.51701C3.53712 5.51701 3.80825 5.4584 4.06138 5.36542L8.87111 10.177C8.77892 10.4302 8.72032 10.7014 8.72032 10.9874L8.73672 11.1453C8.81799 12.3659 9.82353 13.3318 11.0642 13.3318C11.4252 13.3318 11.7643 13.2451 12.069 13.0974L10.5119 11.5399C10.4306 11.4586 10.3736 11.361 10.3345 11.2594C10.2322 10.9827 10.2876 10.6584 10.5119 10.4349C10.6627 10.2825 10.8642 10.2059 11.0642 10.2059C11.1564 10.2059 11.247 10.2255 11.3361 10.2591C11.4385 10.2974 11.5361 10.3521 11.6166 10.4349L13.1738 11.9924C13.3206 11.6861 13.4082 11.3485 13.4082 10.9874C13.4074 9.74639 12.4409 8.74139 11.2213 8.65857Z" fill="#010002"/>
</svg>
