<svg width="14" height="15" viewBox="0 0 14 15" fill="none" xmlns="http://www.w3.org/2000/svg">
<path d="M13.025 11.4768C13.5355 11.9875 13.5355 12.8183 13.025 13.329C13.0243 13.3298 13.0234 13.3305 13.0226 13.3314L12.1267 14.2163C12.0246 14.3171 11.8916 14.3675 11.7587 14.3675C11.6235 14.3675 11.4884 14.3155 11.3859 14.2117C11.1828 14.0059 11.1848 13.6741 11.3906 13.4708L11.9148 12.953H3.50927C2.35401 12.953 1.4142 12.013 1.4142 10.8574V2.43735L0.891658 2.95305C0.685731 3.15626 0.35408 3.15401 0.150915 2.94804C-0.0522496 2.74207 -0.049999 2.41034 0.155928 2.20713L1.04081 1.33403C1.54995 0.831632 2.37836 0.831632 2.8875 1.33403L3.77238 2.20713C3.97831 2.41034 3.98056 2.74207 3.77739 2.94804C3.67489 3.05189 3.53976 3.10398 3.40452 3.10398C3.27163 3.10398 3.13875 3.05374 3.03665 2.95305L2.46173 2.38568V10.8574C2.46173 11.4351 2.93169 11.9052 3.50927 11.9052H11.9679L11.3906 11.335C11.1848 11.1317 11.1827 10.7999 11.3859 10.5941C11.5892 10.3883 11.9209 10.3862 12.1267 10.5895L13.0226 11.4744C13.0234 11.4753 13.0243 11.476 13.025 11.4768ZM11.8372 0.956055H5.05439C4.76437 0.956055 4.52959 1.1918 4.53062 1.48188C4.53174 1.77043 4.7659 2.00382 5.05439 2.00382H11.8372C12.1265 2.00382 12.3609 2.23834 12.3609 2.5277V9.33818C12.3609 9.62673 12.5943 9.86104 12.8828 9.86207C13.1728 9.86309 13.4085 9.62826 13.4085 9.33818V2.5277C13.4085 1.65972 12.705 0.956055 11.8372 0.956055ZM7.69941 9.93779C7.98871 9.93779 8.22318 9.70327 8.22318 9.4139V7.08221C8.22318 6.28779 7.57706 5.64153 6.78282 5.64153C6.4349 5.64153 6.11542 5.76555 5.86623 5.97172C5.61703 5.76555 5.29755 5.64153 4.94963 5.64153C4.74984 5.64153 4.55936 5.68256 4.38627 5.75644C4.29308 5.6711 4.1693 5.61861 4.03304 5.61861C3.74374 5.61861 3.50927 5.85313 3.50927 6.1425V9.41677C3.50927 9.70613 3.74374 9.94065 4.03304 9.94065C4.32234 9.94065 4.55681 9.70613 4.55681 9.41677V7.08221C4.55681 6.8656 4.73307 6.6893 4.94963 6.6893C5.1662 6.6893 5.34246 6.8656 5.34246 7.08221V9.41677C5.34246 9.70613 5.57693 9.94065 5.86623 9.94065C6.15553 9.94065 6.38999 9.70613 6.38999 9.41677V7.08221C6.38999 6.8656 6.56625 6.6893 6.78282 6.6893C6.99939 6.6893 7.17565 6.8656 7.17565 7.08221V9.4139C7.17565 9.70327 7.41011 9.93779 7.69941 9.93779ZM10.076 3.78502C10.0732 3.78502 10.0706 3.78543 10.0678 3.78543C10.0652 3.78543 10.0625 3.78502 10.0597 3.78502C9.39368 3.78502 8.8517 4.32773 8.8517 4.99476C8.8517 5.28402 9.08617 5.51865 9.37547 5.51865C9.66477 5.51865 9.89924 5.28402 9.89924 4.99476C9.89924 4.90697 9.97279 4.83279 10.0597 4.83279C10.0625 4.83279 10.0652 4.83238 10.0679 4.83238C10.0706 4.83238 10.0732 4.83279 10.076 4.83279C10.1594 4.83279 10.2304 4.90094 10.2361 4.98392C10.2258 5.02229 10.1455 5.25957 9.6436 5.8118C9.3323 6.15416 9.02643 6.43299 9.02346 6.43565C8.86316 6.58115 8.80894 6.81035 8.88689 7.01223C8.96485 7.21421 9.15901 7.34743 9.37547 7.34743H10.7896C11.0789 7.34743 11.3134 7.11291 11.3134 6.82355C11.3134 6.53418 11.0789 6.29966 10.7896 6.29966H10.6095C11.0745 5.75204 11.2841 5.3445 11.2841 4.99476C11.2841 4.32773 10.7421 3.78502 10.076 3.78502Z" fill="black"/>
</svg>
