<svg width="305" height="305" viewBox="0 0 305 305" fill="none" xmlns="http://www.w3.org/2000/svg">
<path d="M110.042 168.095C110.042 164.28 106.877 161.188 102.972 161.188H78.299C74.3981 161.188 71.2324 164.28 71.2324 168.095V192.219C71.2324 196.039 74.3981 199.132 78.299 199.132H102.972C106.877 199.132 110.042 196.039 110.042 192.219V168.095Z" fill="black"/>
<path d="M171.699 168.095C171.699 164.28 168.533 161.188 164.635 161.188H139.959C136.058 161.188 132.893 164.28 132.893 168.095V192.219C132.893 196.039 136.058 199.132 139.959 199.132H164.635C168.533 199.132 171.699 196.039 171.699 192.219V168.095Z" fill="black"/>
<path d="M233.362 168.095C233.362 164.28 230.196 161.188 226.296 161.188H201.623C197.718 161.188 194.553 164.28 194.553 168.095V192.219C194.553 196.039 197.718 199.132 201.623 199.132H226.296C230.196 199.132 233.362 196.039 233.362 192.219V168.095Z" fill="black"/>
<path d="M110.042 228.395C110.042 224.573 106.877 221.484 102.972 221.484H78.299C74.3981 221.484 71.2324 224.573 71.2324 228.395V252.513C71.2324 256.331 74.3981 259.423 78.299 259.423H102.972C106.877 259.423 110.042 256.331 110.042 252.513V228.395Z" fill="black"/>
<path d="M171.699 228.395C171.699 224.573 168.533 221.484 164.635 221.484H139.959C136.058 221.484 132.893 224.573 132.893 228.395V252.513C132.893 256.331 136.058 259.423 139.959 259.423H164.635C168.533 259.423 171.699 256.331 171.699 252.513V228.395Z" fill="black"/>
<path d="M233.362 228.395C233.362 224.573 230.196 221.484 226.299 221.484H201.623C197.718 221.484 194.553 224.573 194.553 228.395V252.513C194.553 256.331 197.718 259.423 201.623 259.423H226.299C230.196 259.423 233.362 256.331 233.362 252.513V228.395Z" fill="black"/>
<path d="M57.897 81.0821H77.1438C82.9858 81.0821 87.7225 76.4573 87.7225 70.7448V10.3411C87.7225 4.62801 82.9858 0 77.1438 0H57.897C52.0544 0 47.3184 4.62801 47.3184 10.3411V70.7448C47.3184 76.4573 52.0544 81.0821 57.897 81.0821Z" fill="black"/>
<path d="M226.937 81.0821H246.184C252.022 81.0821 256.759 76.4573 256.759 70.7448V10.3411C256.76 4.62801 252.023 0 246.184 0H226.937C221.096 0 216.359 4.62801 216.359 10.3411V70.7448C216.359 76.4573 221.096 81.0821 226.937 81.0821Z" fill="black"/>
<path d="M277.48 33.9184V70.7719C277.48 87.4293 263.663 100.853 246.635 100.853H227.177C210.147 100.853 196.147 87.4293 196.147 70.7719V33.7861H108.444V70.7719C108.444 87.4293 94.4455 100.853 77.4181 100.853H57.9562C40.9281 100.853 27.1122 87.4293 27.1122 70.7719V33.9184C12.2295 34.3572 0 46.4018 0 61.2062V277.185C0 292.268 12.4994 304.655 27.9207 304.655H276.671C292.069 304.655 304.592 292.242 304.592 277.185V61.2062C304.592 46.4018 292.363 34.3572 277.48 33.9184ZM268.442 263.735C268.442 270.254 263.039 275.542 256.372 275.542H47.6883C41.0212 275.542 35.6177 270.254 35.6177 263.735V152.175C35.6177 145.654 41.0206 140.366 47.6883 140.366H256.371C263.038 140.366 268.442 145.654 268.442 152.175L268.442 263.735Z" fill="black"/>
</svg>
